<svg xmlns="http://www.w3.org/2000/svg" width="17.968" height="17.94" viewBox="0 0 17.968 17.94">
  <defs>
    <style>
      .cls-1 {
        fill: #fff;
        fill-rule: evenodd;
      }
    </style>
  </defs>
  <path id="Forma_1" data-name="Forma 1" class="cls-1" d="M562.02,8856.12a8.33,8.33,0,0,0-8.223-9.63,7.962,7.962,0,0,0-1.3.1,4.957,4.957,0,0,0-2.642-.75,5.038,5.038,0,0,0-4.282,7.68,8.553,8.553,0,0,0-.1,1.3,8.327,8.327,0,0,0,8.324,8.33,9.255,9.255,0,0,0,1.3-.1A5.035,5.035,0,0,0,562.02,8856.12Zm-4.27,2.49a3.551,3.551,0,0,1-1.546,1.19,6.265,6.265,0,0,1-2.4.42,5.761,5.761,0,0,1-2.749-.58,3.557,3.557,0,0,1-1.252-1.13,2.446,2.446,0,0,1-.485-1.38,0.923,0.923,0,0,1,.3-0.68,1.052,1.052,0,0,1,.756-0.28,0.926,0.926,0,0,1,.631.22,1.694,1.694,0,0,1,.433.64,3.777,3.777,0,0,0,.457.82,1.77,1.77,0,0,0,.685.54,2.721,2.721,0,0,0,1.166.21,2.82,2.82,0,0,0,1.615-.42,1.257,1.257,0,0,0,.612-1.06,1.057,1.057,0,0,0-.327-0.81,2.3,2.3,0,0,0-.863-0.49q-0.534-.165-1.435-0.36a11.231,11.231,0,0,1-2.025-.61,3.3,3.3,0,0,1-1.3-.97,2.39,2.39,0,0,1-.485-1.53,2.5,2.5,0,0,1,.511-1.54,3.2,3.2,0,0,1,1.475-1.04,6.421,6.421,0,0,1,2.256-.36,5.957,5.957,0,0,1,1.792.24,3.845,3.845,0,0,1,1.26.64,2.689,2.689,0,0,1,.734.83,1.852,1.852,0,0,1,.234.87,1.037,1.037,0,0,1-1.039,1.01,0.891,0.891,0,0,1-.616-0.19,2.7,2.7,0,0,1-.446-0.6,2.71,2.71,0,0,0-.723-0.91,2.242,2.242,0,0,0-1.35-.32,2.5,2.5,0,0,0-1.394.35,1,1,0,0,0-.521.83,0.82,0.82,0,0,0,.174.52,1.619,1.619,0,0,0,.492.38,4.082,4.082,0,0,0,.641.25c0.218,0.06.58,0.15,1.082,0.27a15.27,15.27,0,0,1,1.716.45,5.5,5.5,0,0,1,1.313.61,2.469,2.469,0,0,1,.852.91,2.683,2.683,0,0,1,.307,1.34A2.944,2.944,0,0,1,557.75,8858.61Z" transform="translate(-544.813 -8845.84)"/>
</svg>
