<svg xmlns="http://www.w3.org/2000/svg" width="19.813" height="16.06" viewBox="0 0 19.813 16.06">
  <defs>
    <style>
      .cls-1 {
        fill: #fff;
        fill-rule: evenodd;
      }
    </style>
  </defs>
  <path id="Forma_1" data-name="Forma 1" class="cls-1" d="M497.059,8847.08a8.262,8.262,0,0,1-2.586.99,4.067,4.067,0,0,0-7.038,2.77,3.984,3.984,0,0,0,.106.92,11.538,11.538,0,0,1-8.386-4.23,3.989,3.989,0,0,0-.55,2.04,4.043,4.043,0,0,0,1.809,3.37,3.97,3.97,0,0,1-1.842-.51v0.05a4.058,4.058,0,0,0,3.263,3.98,4.2,4.2,0,0,1-1.072.14,3.871,3.871,0,0,1-.766-0.07,4.085,4.085,0,0,0,3.8,2.82,8.156,8.156,0,0,1-5.052,1.73,7.8,7.8,0,0,1-.971-0.05,11.581,11.581,0,0,0,17.813-9.72l-0.014-.53a8.077,8.077,0,0,0,2.034-2.1,7.685,7.685,0,0,1-2.336.64A4.051,4.051,0,0,0,497.059,8847.08Z" transform="translate(-477.781 -8846.78)"/>
</svg>
