<svg xmlns="http://www.w3.org/2000/svg" width="21.594" height="18.78" viewBox="0 0 21.594 18.78">
  <defs>
    <style>
      .cls-1 {
        fill: #fff;
        fill-rule: evenodd;
      }
    </style>
  </defs>
  <path id="Forma_1" data-name="Forma 1" class="cls-1" d="M627.481,8844.99c-3-.1-5.027,1.6-6.1,5.08a4.289,4.289,0,0,1,1.6-.34c1.1,0,1.579.62,1.453,1.85a8.365,8.365,0,0,1-1.453,3.28c-0.907,1.43-1.582,2.14-2.028,2.14-0.585,0-1.116-1.1-1.6-3.32-0.166-.64-0.455-2.3-0.875-4.97q-0.583-3.72-3.1-3.47c-0.708.06-1.771,0.72-3.188,1.95-1.037.94-2.084,1.89-3.151,2.84l1.017,1.31a6.965,6.965,0,0,1,1.693-1.03c0.745,0,1.436,1.18,2.083,3.52,0.582,2.15,1.163,4.29,1.745,6.45,0.866,2.34,1.938,3.52,3.193,3.52q3.049,0,7.456-5.77,4.248-5.52,4.4-8.69Q630.834,8845.1,627.481,8844.99Z" transform="translate(-609.031 -8845)"/>
</svg>
