<?xml version="1.0" encoding="utf-8"?><svg xmlns="http://www.w3.org/2000/svg" xmlns:xlink="http://www.w3.org/1999/xlink"><symbol viewBox="0 0 20 35" id="bulb"><defs><style>.acls-1{fill:#18cfab;fill-rule:evenodd}</style></defs><path id="aForma_1" data-name="Forma 1" class="acls-1" d="M404.945 2025.66h-9.89a.95.95 0 0 0 0 1.9h9.891a.95.95 0 0 0-.001-1.9zm-.209 2.73h-9.472a.94.94 0 0 0 0 1.88h9.471a.94.94 0 0 0 .001-1.88zm-1.237 2.73h-7a.928.928 0 0 0-.925.94.937.937 0 0 0 .93.94h6.996a.94.94 0 0 0 0-1.88zm-3.337-33.12h-.324c-5.433 0-9.838 4.91-9.838 10.97 0 2.82.745 4.62 2.53 7.31 1.07 1.61 2.549 2.83 2.778 8.47h9.383c.23-5.64 1.71-6.85 2.778-8.46 1.785-2.7 2.531-4.51 2.531-7.33 0-6.05-4.4-10.96-9.838-10.96zm3.459 12.69l-3.323 3.46v8.09a.3.3 0 1 1-.6 0v-8.09l-3.324-3.46a.311.311 0 0 1 .007-.44.3.3 0 0 1 .439 0l3.175 3.3 3.174-3.3a.305.305 0 0 1 .44 0 .312.312 0 0 1 .012.44z" transform="translate(-390 -1998)"/></symbol><symbol viewBox="0 0 35 35" id="cart"><defs><style>.bcls-1{fill:#fff;fill-rule:evenodd}</style></defs><path id="bForma_1" data-name="Forma 1" class="bcls-1" d="M1193.5 6276a3.5 3.5 0 1 0 3.5 3.5 3.5 3.5 0 0 0-3.5-3.5zm-10.5-28v3.5h3.5l6.3 13.3-2.45 4.2a5.982 5.982 0 0 0-.35 1.75 3.51 3.51 0 0 0 3.5 3.5h21v-3.5h-20.3a.376.376 0 0 1-.35-.35v-.18l1.57-2.97h12.95a3.2 3.2 0 0 0 2.98-1.75l6.3-11.38a.955.955 0 0 0 .35-.87 1.653 1.653 0 0 0-1.75-1.75h-25.9l-1.58-3.5H1183zm28 28a3.5 3.5 0 1 0 3.5 3.5 3.5 3.5 0 0 0-3.5-3.5z" transform="translate(-1183 -6248)"/></symbol><symbol viewBox="0 0 37 31" id="case"><defs><style>.ccls-1{fill:#fff;fill-rule:evenodd}</style></defs><path id="cForma_1" data-name="Forma 1" class="ccls-1" d="M242.314 6269v-.84a1.814 1.814 0 1 0-3.628 0v.84a1.814 1.814 0 1 0 3.628 0zm1.245 1.03a3.173 3.173 0 0 1-6.118 0h-12.5a4.954 4.954 0 0 1-2.2-.52v8.48a2.981 2.981 0 0 0 2.945 3h29.623a2.982 2.982 0 0 0 2.946-3v-8.48a4.965 4.965 0 0 1-2.2.52h-12.496zm12.372-15.22h-7.07a5.654 5.654 0 0 0-5.529-4.82h-5.665a5.655 5.655 0 0 0-5.529 4.82h-7.07a3.052 3.052 0 0 0-3.068 3.01v6.94a2.98 2.98 0 0 0 2.945 3.01H237.3a3.289 3.289 0 0 1 .981-2.2c.018-.02.038-.03.057-.05a3.39 3.39 0 0 1 .405-.33 1.144 1.144 0 0 1 .164-.09c.119-.07.237-.14.366-.2.1-.04.21-.07.316-.1a2.518 2.518 0 0 1 .273-.08 2.749 2.749 0 0 1 1.544.08 3.211 3.211 0 0 1 .315.1c.129.06.246.13.365.2a1.284 1.284 0 0 1 .166.09 3.38 3.38 0 0 1 .4.33c.018.02.04.03.057.05a3.285 3.285 0 0 1 .981 2.2h12.357a2.974 2.974 0 0 0 2.946-3.01v-6.94a3.051 3.051 0 0 0-3.062-3.01zm-20.957 0a2.844 2.844 0 0 1 2.693-2h5.665a2.846 2.846 0 0 1 2.693 2h-11.051z" transform="translate(-222 -6250)"/></symbol><symbol viewBox="0 0 24 23.66" id="check"><defs><style>.dcls-1{fill:#18cfab;fill-rule:evenodd}</style></defs><path id="dForma_1_copy_10" data-name="Forma 1 copy 10" class="dcls-1" d="M1085 9330a11.826 11.826 0 1 0 12 11.83 11.91 11.91 0 0 0-12-11.83zm-1.7 17.4l-5.65-5.57 2.26-2.23 3.39 3.34 6.79-6.69 2.26 2.23z" transform="translate(-1073 -9330)"/></symbol><symbol viewBox="0 0 57.562 97" id="click"><defs><style>.ecls-1{fill:#18cfab;fill-rule:evenodd}</style></defs><path id="eForma_1" data-name="Forma 1" class="ecls-1" d="M227.418 1201.83a2.166 2.166 0 0 0 2.144 2.17h31.679a2.165 2.165 0 0 0 2.143-2.17v-4.96h-35.966v4.96zm-.718-59.85l.011-15.85a6.831 6.831 0 0 1 1.94-4.82 7.711 7.711 0 0 1 5.487-2.21 7.463 7.463 0 0 1 4.437 1.42 6.572 6.572 0 0 1 2.593 4.68c0 .04.847 8.31 1.607 15.7a17.978 17.978 0 1 0-16.075 1.08zm42.3 20.68a4.858 4.858 0 0 0-3.333-4.64c-5.948-1.96-17.951-5.87-19.784-6.24a8.731 8.731 0 0 0-1.661-.16 5.284 5.284 0 0 0-3.472 1.08h-.011v-.01c-.01-.08-2.775-27.11-2.775-27.16a3.59 3.59 0 0 0-3.837-3.19c-2.079 0-4.223 1.32-4.212 3.78l-.021 43.8a1.021 1.021 0 0 1-.89 1.02h-.021a.338.338 0 0 1-.14.02h-.032c-1.457-.05-4.747-.09-7.951-4.78-.429-.62-.815-1.18-1.169-1.7a4.864 4.864 0 0 0-4.008-2.31 4.338 4.338 0 0 0-4.147 5.37c.772 4.7 5.851 15.62 15.861 25.87h35.966l3.633-6.2a14.361 14.361 0 0 0 1.983-7.28z" transform="translate(-211.438 -1107)"/></symbol><symbol viewBox="0 0 93 75" id="crystal"><defs><style>.fcls-1{fill:#fff;fill-rule:evenodd}</style></defs><path id="fForma_1" data-name="Forma 1" class="fcls-1" d="M748.294 1118l-12.244 18.42L723.4 1118h24.9zm-14.188 22.63h-27.163l13.58 51.4zm-26.256-3.02h25.35l-12.674-18.45zm-2.85-1.19l12.651-18.42h-24.9zm12.645 56.58l-13.836-52.37H674zm-43.6-55.39h28.115l-12.247-18.42zm77.074-18.39l-12.224 18.39h28.065zm-13.877 21.41l-13.842 52.36 43.6-52.36h-29.761z" transform="translate(-674 -1118)"/></symbol><symbol viewBox="0 0 99 76" id="device"><defs><style>.gcls-1{fill:#fff;fill-rule:evenodd}</style></defs><path id="gForma_1" data-name="Forma 1" class="gcls-1" d="M1631 1193h38.8v-57.02H1631V1193zm20.22-2.86a1.835 1.835 0 1 1 1.87-1.84 1.855 1.855 0 0 1-1.87 1.84zm-14.61-48.67h27.58v42.07h-27.58v-42.07zm13.58-19.11h62.17v24.72h5.48V1117h-73.13v16.54h5.48v-11.18zm22.11 36.51h28.81v5.37h-28.81v-5.37zm31.64-9.71v42.95H1730v-42.95h-26.06zm13.61 1.78a.62.62 0 1 1-.63.62.619.619 0 0 1 .63-.62zm-3.75 2.06h7.5v.59h-7.5v-.59zm3.5 37.25a1.471 1.471 0 1 1 1.51-1.47 1.492 1.492 0 0 1-1.51 1.47zm8.52-5.05c-6.77.03-14.34.06-17.7.03v-29.53h17.7v29.5zm-45.59-18.76h-7.93v3.25h19.31v1.42h-19.31v2.94h28.81v-7.61h-20.88z" transform="translate(-1631 -1117)"/></symbol><symbol viewBox="0 0 9.437 21.75" id="facebook"><defs><style>.hcls-1{fill:#fff;fill-rule:evenodd}</style></defs><path id="hForma_1" data-name="Forma 1" class="hcls-1" d="M423.644 8865.69h-3.786v-10.87h-2.526v-3.75h2.526v-2.2c0-3.06.77-4.92 4.116-4.92h2.786v3.75h-1.741c-1.3 0-1.366.52-1.366 1.5v1.87h3.132l-.369 3.75h-2.76z" transform="translate(-417.344 -8843.94)"/></symbol><symbol viewBox="0 0 22 30" id="hourglass"><defs><style>.icls-1{fill:#18cfab;fill-rule:evenodd}</style></defs><path id="iForma_1" data-name="Forma 1" class="icls-1" d="M410.274 1814.57h.863a.864.864 0 0 0 .863-.86v-.85a.858.858 0 0 0-.863-.86h-20.274a.858.858 0 0 0-.863.86v.85a.864.864 0 0 0 .863.86h.862c0 7.63 6.121 7.93 6.471 12.43-.35 4.5-6.471 4.8-6.471 12.43h-.862a.856.856 0 0 0-.863.85v.86a.864.864 0 0 0 .863.86h20.274a.864.864 0 0 0 .863-.86v-.86a.856.856 0 0 0-.863-.85h-.863c0-7.63-6.12-7.93-6.47-12.43.35-4.5 6.47-4.8 6.47-12.43zm-2.615 24.14a.433.433 0 0 1-.355.68h-12.675a.432.432 0 0 1-.373-.65 24.017 24.017 0 0 1 6.455-6.92.45.45 0 0 1 .559.03 41.12 41.12 0 0 1 6.389 6.86zm-6.693-13.8l-4.6-4.56a13.518 13.518 0 0 0 4.193.94c1.881 0 3.487-1.33 4.9-1.33s-4.493 4.95-4.493 4.95z" transform="translate(-390 -1812)"/></symbol><symbol viewBox="0 0 34 22" id="laptop"><defs><style>.jcls-1{fill:#18cfab;fill-rule:evenodd}</style></defs><path id="jForma_1" data-name="Forma 1" class="jcls-1" d="M828.952 1834.76a.164.164 0 0 0-.13-.06h-33.644a.167.167 0 0 0-.131.06.183.183 0 0 0-.04.14c0 .03.513 3.1 4.451 3.1h25.084c3.938 0 4.446-3.07 4.451-3.1a.18.18 0 0 0-.041-.14zm-14.422 2.16h-5.061v-1.14h5.061v1.14zm-15.857-3.41h26.654a.7.7 0 0 0 .7-.69v-16.14a.693.693 0 0 0-.7-.68h-26.654a.692.692 0 0 0-.7.68v16.14a.694.694 0 0 0 .7.69zm1.745-15.1h23.164v12.69h-23.164v-12.69z" transform="translate(-795 -1816)"/></symbol><symbol viewBox="0 0 24.375 34" id="leaf"><defs><style>.kcls-1{fill:#18cfab;fill-rule:evenodd}</style></defs><path id="kForma_1" data-name="Forma 1" class="kcls-1" d="M411.2 1626a19.586 19.586 0 0 1-5.817 3.81c-22.386 8.1-12.945 23.89-12.637 23.94a12.775 12.775 0 0 1 2.951-3.43c10.76-7.92 12.947-17.03 12.947-17.03s-2.415 10.96-11.987 17.79c-2.115 1.5-3.546 5.21-4.152 8.92 0 0 1.5-.61 2.143-.77a12 12 0 0 1 1.665-4.62c13.379 1.59 17.761-9.2 18.333-12.96A23.249 23.249 0 0 0 411.2 1626z" transform="translate(-390.5 -1626)"/></symbol><symbol viewBox="0 0 60 96" id="leafinbubl"><defs><style>.lcls-1{fill:#18cfab;fill-rule:evenodd}</style></defs><path id="lForma_1" data-name="Forma 1" class="lcls-1" d="M1218 1182a3 3 0 0 1-3 3h-30a3 3 0 0 1 0-6h30a3 3 0 0 1 3 3zm-3 6h-30a3 3 0 0 0 0 6h30a3 3 0 0 0 0-6zm-21 15h12a6 6 0 0 0 6-6h-24a6 6 0 0 0 6 6zm36-66c0 16.31-9.83 18.21-11.68 36a3 3 0 0 1-3 3h-30.64a3 3 0 0 1-3-3h-.01c-1.84-17.79-11.67-19.69-11.67-36a30 30 0 0 1 60 0zm-17.85-9c-34.88 8.25-18 30-18 30 0-12 8.81-14.82 9-14.44-6.19 6-9 26.44-9 26.44h6v-12c17.06.94 12-27.94 12-30z" transform="translate(-1170 -1107)"/></symbol><symbol viewBox="0 0 14.218 14.22" id="link"><defs><style>.mcls-1{fill:#1fdab5;fill-rule:evenodd}</style></defs><path id="mForma_1" data-name="Forma 1" class="mcls-1" d="M515.913 3314.73l-1.818-1.84a2.065 2.065 0 0 0-2.918-.01l-2.018 2.01a2.079 2.079 0 0 0-.008 2.93l1.152-1.13a1.08 1.08 0 0 1 .313-1.06l1.283-1.28a1.03 1.03 0 0 1 1.461.01l1.091 1.1a1.033 1.033 0 0 1 0 1.46l-1.284 1.28a1.2 1.2 0 0 1-1.063.33l-1.129 1.13a2.056 2.056 0 0 0 2.918.01l2.015-2.01a2.076 2.076 0 0 0 .005-2.93zm-7.387 7.36a1.209 1.209 0 0 1-.335 1.09l-1.2 1.2a1.05 1.05 0 0 1-1.485-.01l-1.114-1.12a1.057 1.057 0 0 1 .005-1.49l1.2-1.2a1.069 1.069 0 0 1 1.079-.31l1.157-1.18a2.1 2.1 0 0 0-2.973-.01l-1.946 1.95a2.112 2.112 0 0 0-.009 2.98l1.852 1.87a2.1 2.1 0 0 0 2.973.01l1.945-1.94a2.113 2.113 0 0 0 .01-2.98zm-1.264-.53a.7.7 0 0 0 1 0l3.324-3.38a.72.72 0 0 0 0-1.01.685.685 0 0 0-.994-.01l-3.325 3.38a.734.734 0 0 0-.005 1.02z" transform="translate(-502.313 -3312.28)"/></symbol><symbol viewBox="0 0 27.75 27.75" id="magnifier"><defs><style>.ncls-1{fill:#18cfab;fill-rule:evenodd}</style></defs><path id="nForma_1" data-name="Forma 1" class="ncls-1" d="M1230.98 1653.3l-6.36-6.36a12.415 12.415 0 0 1-3.68 3.68l6.37 6.36a2.6 2.6 0 0 0 3.67-3.68zm-6.17-12.9a10.405 10.405 0 1 0-10.41 10.41 10.407 10.407 0 0 0 10.41-10.41zm-10.41 7.81a7.805 7.805 0 1 1 7.81-7.81 7.812 7.812 0 0 1-7.81 7.81zm-6.06-7.81h1.73a4.332 4.332 0 0 1 4.33-4.33v-1.74a6.077 6.077 0 0 0-6.06 6.07z" transform="translate(-1204 -1630)"/></symbol><symbol viewBox="0 0 28.931 28.932" id="magnifying-lenses"><path d="M28.344 25.518l-6.114-6.115a12.177 12.177 0 0 0 2.303-7.137c0-3.275-1.275-6.355-3.594-8.672A12.183 12.183 0 0 0 12.266 0a12.176 12.176 0 0 0-8.673 3.594 12.183 12.183 0 0 0-3.592 8.672c0 3.276 1.275 6.356 3.592 8.674a12.187 12.187 0 0 0 8.673 3.594c2.599 0 5.067-.813 7.136-2.303l6.114 6.115c.392.391.902.586 1.414.586a2 2 0 0 0 1.414-3.414zM6.422 18.111c-1.562-1.562-2.421-3.639-2.421-5.846s.859-4.282 2.421-5.844c1.561-1.562 3.636-2.422 5.844-2.422s4.284.86 5.845 2.422c1.562 1.562 2.422 3.638 2.422 5.845s-.859 4.283-2.422 5.846c-1.562 1.562-3.636 2.42-5.845 2.42s-4.285-.86-5.844-2.421z"/></symbol><symbol viewBox="0 0 43 38" id="marker"><defs><style>.pcls-1{fill:#fff;fill-rule:evenodd}</style></defs><path id="pForma_1" data-name="Forma 1" class="pcls-1" d="M1680.5 6276.43c1.19 0 11.12-12.27 11.12-18.38a11.12 11.12 0 0 0-22.24 0c0 6.11 9.97 18.38 11.12 18.38zm-7.19-18.76a7.19 7.19 0 1 1 7.19 7.14 7.161 7.161 0 0 1-7.19-7.14zm26.95 10.3a1.859 1.859 0 0 0-1.86-1.84h-6.78a.465.465 0 0 0-.48.29c-.36.6-.32.54-.66 1.1a.205.205 0 0 0 .18.34h7.74a.12.12 0 0 1 .12.11l1.74 15.18a.129.129 0 0 1-.12.12h-39.28a.129.129 0 0 1-.12-.12l1.74-15.18a.12.12 0 0 1 .12-.11h7.68c.16 0 .41-.09.13-.55-.34-.54-.21-.39-.56-.98a.512.512 0 0 0-.56-.2h-6.69a1.859 1.859 0 0 0-1.86 1.84l-1.74 15.18a1.854 1.854 0 0 0 1.86 1.85h39.28a1.854 1.854 0 0 0 1.86-1.85z" transform="translate(-1659 -6247)"/></symbol><symbol viewBox="0 0 26.781 26.75" id="note"><defs><style>.qcls-1{fill:#18cfab;fill-rule:evenodd}</style></defs><path id="qForma_1" data-name="Forma 1" class="qcls-1" d="M821.02 1630.98a2.5 2.5 0 0 1 0 3.54l-1.182 1.19-3.549-3.55 1.183-1.18a2.508 2.508 0 0 1 3.548 0zm-17.736 14.19l-1.181 4.73 4.729-1.19 11.824-11.82-3.549-3.55zm11.782-2.33v10.81h-16.722v-16.72h10.81l3.343-3.34H795V1657h23.41v-17.5z" transform="translate(-795 -1630.25)"/></symbol><symbol viewBox="0 0 28 36" id="persona"><defs><style>.rcls-1{fill:#fff;fill-rule:evenodd}</style></defs><path id="rForma_1" data-name="Forma 1" class="rcls-1" d="M721 6265.6c4.093 0 7.411-3.94 7.411-8.8s-1.089-8.81-7.411-8.81-7.41 3.95-7.41 8.81 3.317 8.8 7.41 8.8zm-14 13.44c0-.29 0-.08 0 0zm28 .23c0-.08 0-.56 0 0zm-.016-.58c-.137-8.48-1.268-10.89-9.923-12.41a6.177 6.177 0 0 1-8.116 0c-8.56 1.51-9.76 3.88-9.918 12.13a1.606 1.606 0 0 1-.021.63v.89s2.061 4.06 14 4.06 14-4.06 14-4.06v-.66a4.579 4.579 0 0 1-.026-.58z" transform="translate(-707 -6248)"/></symbol><symbol viewBox="0 0 25.875 23.88" id="plane"><defs><style>.scls-1{fill:#18cfab;fill-rule:evenodd}</style></defs><path id="sForma_1" data-name="Forma 1" class="scls-1" d="M796.11 2014.21a1.633 1.633 0 0 0-1.032 1.3 1.612 1.612 0 0 0 .656 1.52l5.285 3.81 18.773-14.64-16.6 16.21 7.225 5.21a1.819 1.819 0 0 0 1.6.26 1.793 1.793 0 0 0 1.176-1.1l7.729-20.96a.574.574 0 0 0-.139-.61.587.587 0 0 0-.618-.13zm3.655 7.89l.045.25 1.025 5.56a1.268 1.268 0 0 0 1.932.82 34.655 34.655 0 0 0 3.244-2.19z" transform="translate(-795.063 -2005.06)"/></symbol><symbol viewBox="0 0 27 22" id="profile"><defs><style>.tcls-1{fill:#18cfab;fill-rule:evenodd}</style></defs><path id="tForma_1" data-name="Forma 1" class="tcls-1" d="M1217.17 2019.01h-.66a.615.615 0 0 1-.61-.62.476.476 0 0 1 .14-.34 4.431 4.431 0 0 0 .93-1.42.314.314 0 0 0 .16.06 1.5 1.5 0 0 0 .8-1.38c0-.56-.05-1.01-.42-1.01a.708.708 0 0 0-.14.01c-.02-1.51-.4-3.41-2.7-3.41-2.4 0-2.68 1.89-2.71 3.41a.34.34 0 0 0-.1-.01c-.37 0-.42.45-.42 1.01a1.5 1.5 0 0 0 .8 1.38.2.2 0 0 0 .13-.04 4.338 4.338 0 0 0 .93 1.4.476.476 0 0 1 .14.34.623.623 0 0 1-.62.62h-.66a2.554 2.554 0 0 0-2.54 2.56v.71a.8.8 0 0 0 .8.81h8.49a.8.8 0 0 0 .8-.81v-.71a2.548 2.548 0 0 0-2.54-2.56zm7.62-7.03h-7.12a5.43 5.43 0 0 1 .41 1.72.97.97 0 0 1 .36.43h6.35a.593.593 0 0 0 .59-.6v-.95a.593.593 0 0 0-.59-.6zm0 3.92h-6.2a2.1 2.1 0 0 1-1.16 1.49l-.06.09v.57h7.42a.6.6 0 0 0 .59-.6v-.95a.593.593 0 0 0-.59-.6zm0 3.92h-4.84a3.279 3.279 0 0 1 .5 1.75v.4h4.34a.593.593 0 0 0 .59-.6v-.95a.593.593 0 0 0-.59-.6zm2.55-13.82h-19.68a3.672 3.672 0 0 0-3.66 3.68v14.63a3.675 3.675 0 0 0 3.66 3.69h19.68a3.675 3.675 0 0 0 3.66-3.69v-14.63a3.672 3.672 0 0 0-3.66-3.68zm1.93 18.31a1.936 1.936 0 0 1-1.93 1.95h-19.68a1.936 1.936 0 0 1-1.93-1.95v-14.63a1.933 1.933 0 0 1 1.93-1.94h19.68a1.933 1.933 0 0 1 1.93 1.94v14.63z" transform="translate(-1204 -2006)"/></symbol><symbol viewBox="0 0 17.968 17.94" id="skype"><defs><style>.ucls-1{fill:#fff;fill-rule:evenodd}</style></defs><path id="uForma_1" data-name="Forma 1" class="ucls-1" d="M562.02 8856.12a8.33 8.33 0 0 0-8.223-9.63 7.962 7.962 0 0 0-1.3.1 4.957 4.957 0 0 0-2.642-.75 5.038 5.038 0 0 0-4.282 7.68 8.553 8.553 0 0 0-.1 1.3 8.327 8.327 0 0 0 8.324 8.33 9.255 9.255 0 0 0 1.3-.1 5.035 5.035 0 0 0 6.923-6.93zm-4.27 2.49a3.551 3.551 0 0 1-1.546 1.19 6.265 6.265 0 0 1-2.4.42 5.761 5.761 0 0 1-2.749-.58 3.557 3.557 0 0 1-1.252-1.13 2.446 2.446 0 0 1-.485-1.38.923.923 0 0 1 .3-.68 1.052 1.052 0 0 1 .756-.28.926.926 0 0 1 .631.22 1.694 1.694 0 0 1 .433.64 3.777 3.777 0 0 0 .457.82 1.77 1.77 0 0 0 .685.54 2.721 2.721 0 0 0 1.166.21 2.82 2.82 0 0 0 1.615-.42 1.257 1.257 0 0 0 .612-1.06 1.057 1.057 0 0 0-.327-.81 2.3 2.3 0 0 0-.863-.49q-.534-.165-1.435-.36a11.231 11.231 0 0 1-2.025-.61 3.3 3.3 0 0 1-1.3-.97 2.39 2.39 0 0 1-.485-1.53 2.5 2.5 0 0 1 .511-1.54 3.2 3.2 0 0 1 1.475-1.04 6.421 6.421 0 0 1 2.256-.36 5.957 5.957 0 0 1 1.792.24 3.845 3.845 0 0 1 1.26.64 2.689 2.689 0 0 1 .734.83 1.852 1.852 0 0 1 .234.87 1.037 1.037 0 0 1-1.039 1.01.891.891 0 0 1-.616-.19 2.7 2.7 0 0 1-.446-.6 2.71 2.71 0 0 0-.723-.91 2.242 2.242 0 0 0-1.35-.32 2.5 2.5 0 0 0-1.394.35 1 1 0 0 0-.521.83.82.82 0 0 0 .174.52 1.619 1.619 0 0 0 .492.38 4.082 4.082 0 0 0 .641.25c.218.06.58.15 1.082.27a15.27 15.27 0 0 1 1.716.45 5.5 5.5 0 0 1 1.313.61 2.469 2.469 0 0 1 .852.91 2.683 2.683 0 0 1 .307 1.34 2.944 2.944 0 0 1-.538 1.72z" transform="translate(-544.813 -8845.84)"/></symbol><symbol viewBox="0 0 23.78 24" id="tools"><defs><style>.vcls-1{fill:#18cfab;fill-rule:evenodd}</style></defs><path id="vForma_1" data-name="Forma 1" class="vcls-1" d="M1204.87 1835.16a2.263 2.263 0 0 0 0 3.18 2.227 2.227 0 0 0 1.58.66 2.188 2.188 0 0 0 1.57-.66l7.31-7.38-3.15-3.18zm18.28-13.68l3.18-1.66 1.67-3.25-1.55-1.57-3.23 1.68-1.65 3.21-3.87 3.92 1.57 1.59zm.7 8.53l-.31-.03a4.441 4.441 0 0 0-1.54.3l-9.14-9.23a4.5 4.5 0 0 0 .29-1.56l-.03-.3a4.459 4.459 0 0 0-4.42-4.19 4.365 4.365 0 0 0-1.91.45l2.96 2.98a1.606 1.606 0 0 1 .33.54 1.522 1.522 0 0 1-.33 1.58 1.445 1.445 0 0 1-1.05.44 1.548 1.548 0 0 1-.52-.1 1.375 1.375 0 0 1-.53-.34l-2.96-2.98a4.409 4.409 0 0 0-.45 1.92 4.473 4.473 0 0 0 4.16 4.47l.3.03a4.432 4.432 0 0 0 1.54-.29l9.14 9.22a4.5 4.5 0 0 0-.29 1.56l.03.3a4.459 4.459 0 0 0 4.42 4.19 4.358 4.358 0 0 0 1.91-.44l-2.95-2.99a1.41 1.41 0 0 1-.34-.54 1.506 1.506 0 0 1 .34-1.58 1.463 1.463 0 0 1 1.04-.44 1.548 1.548 0 0 1 .52.1 1.489 1.489 0 0 1 .54.34l2.95 2.99a4.459 4.459 0 0 0-3.7-6.4z" transform="translate(-1204.22 -1815)"/></symbol><symbol viewBox="0 0 19.813 16.06" id="twitter"><defs><style>.wcls-1{fill:#fff;fill-rule:evenodd}</style></defs><path id="wForma_1" data-name="Forma 1" class="wcls-1" d="M497.059 8847.08a8.262 8.262 0 0 1-2.586.99 4.067 4.067 0 0 0-7.038 2.77 3.984 3.984 0 0 0 .106.92 11.538 11.538 0 0 1-8.386-4.23 3.989 3.989 0 0 0-.55 2.04 4.043 4.043 0 0 0 1.809 3.37 3.97 3.97 0 0 1-1.842-.51v.05a4.058 4.058 0 0 0 3.263 3.98 4.2 4.2 0 0 1-1.072.14 3.871 3.871 0 0 1-.766-.07 4.085 4.085 0 0 0 3.8 2.82 8.156 8.156 0 0 1-5.052 1.73 7.8 7.8 0 0 1-.971-.05 11.581 11.581 0 0 0 17.813-9.72l-.014-.53a8.077 8.077 0 0 0 2.034-2.1 7.685 7.685 0 0 1-2.336.64 4.051 4.051 0 0 0 1.788-2.24z" transform="translate(-477.781 -8846.78)"/></symbol><symbol viewBox="0 0 21.594 18.78" id="vimeo"><defs><style>.xcls-1{fill:#fff;fill-rule:evenodd}</style></defs><path id="xForma_1" data-name="Forma 1" class="xcls-1" d="M627.481 8844.99c-3-.1-5.027 1.6-6.1 5.08a4.289 4.289 0 0 1 1.6-.34c1.1 0 1.579.62 1.453 1.85a8.365 8.365 0 0 1-1.453 3.28c-.907 1.43-1.582 2.14-2.028 2.14-.585 0-1.116-1.1-1.6-3.32-.166-.64-.455-2.3-.875-4.97q-.583-3.72-3.1-3.47c-.708.06-1.771.72-3.188 1.95-1.037.94-2.084 1.89-3.151 2.84l1.017 1.31a6.965 6.965 0 0 1 1.693-1.03c.745 0 1.436 1.18 2.083 3.52.582 2.15 1.163 4.29 1.745 6.45.866 2.34 1.938 3.52 3.193 3.52q3.049 0 7.456-5.77 4.248-5.52 4.4-8.69.208-4.24-3.145-4.35z" transform="translate(-609.031 -8845)"/></symbol></svg>